{"title":"Hunt to Kill 2010 DVDrip English Klam","uid":6722222,"size":1576559547,"categoryP":"video","categoryS":"movies","magnet":"?xt=urn:btih:813b0551d42fe8cb347392f5c715416e4c332c0c&amp;dn=Hunt+to+Kill+2010+DVDrip+English+Klam&amp;tr=udp%3A%2F%2Ftracker.openbittorrent.com%3A80&amp;tr=udp%3A%2F%2Fopen.demonii.com%3A1337&amp;tr=udp%3A%2F%2Ftracker.coppersurfer.tk%3A6969&amp;tr=udp%3A%2F%2Fexodus.desync.com%3A6969","seeders":0,"leechers":0,"uploader":"Klambake","files":-1,"time":1317826613,"description":"With: Steve Austin, Eric Roberts and Gil Bellows\n\nJim Rhodes is een ruige agent van de grenspolitie. Wanneer zijn tienerdochter ontvoerd wordt, wordt hij gedwongen een groep genadeloze moordenaars de wildernis in te leiden om hun verloren deel van een mislukte deal terug te halen. Om zijn dochter te redden zal Jim nu zijn survival-technieken moeten gebruiken om de ontvoerders te slim af te zijn.\n\nSteve Austin stars as U.S. Border Patrol agent Jim Rhodes, a tough divorce mourning the loss of his...\n\n------------------ Dutch Friends ------------------\nYou can find my Friends at: http://www.Film-Test.nl \n------ They got my dutch subs ----- and more ------\n\nGeneral:\n\nComplete name                    : Hunt to Kill\\Hunt to Kill.avi\nFormat                           : AVI\nFormat/Info                      : Audio Video Interleave\nFile size                        : 1.47 GiB\nDuration                         : 1h 33mn\nOverall bit rate                 : 2 256 Kbps\n\nVideo:\n\nFormat                           : MPEG-4 Visual\nFormat profile                   : Simple@L3\nFormat settings, BVOP            : No\nFormat settings, QPel            : No\nFormat settings, GMC             : No warppoints\nFormat settings, Matrix          : Default (H.263)\nCodec ID                         : XVID\nCodec ID/Hint                    : XviD\nDuration                         : 1h 33mn\nBit rate                         : 1 797 Kbps\nWidth                            : 704 pixels\nHeight                           : 396 pixels\nDisplay aspect ratio             : 16:9\nFrame rate                       : 25.000 fps\nColor space                      : YUV\nChroma subsampling               : 4:2:0\nBit depth                        : 8 bits\nScan type                        : Progressive\nBits/(Pixel*Frame)               : 0.258\nStream size                      : 1.17 GiB (80%)\nWriting library                  : XviD 1.1.2 (UTC 2006-11-01)\n\nAudio:\n\nFormat                           : AC-3\nFormat/Info                      : Audio Coding 3\nMode extension                   : CM (complete main)\nCodec ID                         : 2000\nDuration                         : 1h 33mn\nBit rate mode                    : Constant\nBit rate                         : 448 Kbps\nChannel(s)                       : 6 channels\nChannel positions                : Front: L C R, Side: L R, LFE\nSampling rate                    : 48.0 KHz\nBit depth                        : 16 bits\nStream size                      : 299 MiB (20%)\nAlignment                        : Aligned on interleaves\nInterleave, duration             : 32 ms (0.80 video frame)\n\n","torrent":{"xt":"urn:btih:813b0551d42fe8cb347392f5c715416e4c332c0c","amp;dn":"Hunt+to+Kill+2010+DVDrip+English+Klam","amp;tr":["udp%3A%2F%2Ftracker.openbittorrent.com%3A80","udp%3A%2F%2Fopen.demonii.com%3A1337","udp%3A%2F%2Ftracker.coppersurfer.tk%3A6969","udp%3A%2F%2Fexodus.desync.com%3A6969"],"infoHash":"813b0551d42fe8cb347392f5c715416e4c332c0c","infoHashBuffer":{"type":"Buffer","data":[129,59,5,81,212,47,232,203,52,115,146,245,199,21,65,110,76,51,44,12]},"announce":[],"urlList":[]}}